<svg id="Capa_1" enable-background="new 0 0 512 512" height="512" viewBox="0 0 512 512" width="512" xmlns="http://www.w3.org/2000/svg"><g><path fill='#4347E3' d="m481.867 241c.113-14.401.133-29.293.133-44.781v-15h-30v15c0 15.414-.05 30.353-.202 44.781h-180.814c-.138-44.627-1.474-100.607-14.35-146.637-8.054-28.792-19.567-50.441-35.198-66.186-18.563-18.697-42.429-28.177-70.936-28.177-29.032 0-53.005 9.905-71.252 29.44-15.777 16.891-27.231 40.74-35.016 72.909-6.364 26.298-10.282 57.671-12.331 98.734-.646 12.957-1.074 26.229-1.357 39.917h-30.544v30h30.133c-.113 14.401-.133 29.293-.133 44.781v15h30v-15c0-15.414.05-30.353.202-44.781h180.814c.138 44.627 1.474 100.607 14.35 146.637 8.054 28.792 19.567 50.441 35.198 66.186 18.563 18.697 42.429 28.177 70.936 28.177 29.032 0 53.005-9.905 71.252-29.44 15.777-16.892 27.231-40.74 35.016-72.909 6.364-26.298 10.282-57.671 12.331-98.734.646-12.957 1.074-26.229 1.357-39.917h30.544v-30zm-421.17 0c3.047-129.787 18.469-211 89.803-211 79.854 0 89.741 102.081 90.454 211zm300.803 241c-79.854 0-89.741-102.081-90.454-211h180.257c-3.047 129.787-18.469 211-89.803 211z"/></g></svg>